<?xml version="1.0" encoding="UTF-8" standalone="no" ?>
<!DOCTYPE svg PUBLIC "-//W3C//DTD SVG 1.1//EN" "http://www.w3.org/Graphics/SVG/1.1/DTD/svg11.dtd">
<svg xmlns="http://www.w3.org/2000/svg" xmlns:xlink="http://www.w3.org/1999/xlink" version="1.1" width="64px" height="64px" viewBox="0 0 349.99 349.99" xml:space="preserve">
<desc>Created with Fabric.js 1.7.22</desc>
<defs>
</defs>
<g id="icon" style="stroke: none; stroke-width: 1; stroke-dasharray: none; stroke-linecap: butt; stroke-linejoin: miter; stroke-miterlimit: 10; fill: none; fill-rule: nonzero; opacity: 1;" transform="translate(-1.9443888888888807 -1.9443888888888807) scale(3.89 3.89)" >
	<path d="M 88.445 39.537 h -1.313 c -1.117 0 -2.138 -0.689 -2.503 -1.745 c -0.293 -0.849 -0.637 -1.673 -1.027 -2.471 c -0.488 -0.999 -0.258 -2.202 0.528 -2.988 l 0.941 -0.941 c 0.412 -0.412 0.412 -1.08 0 -1.492 l -6.233 -6.233 c -0.412 -0.412 -1.08 -0.412 -1.492 0 l -0.941 0.941 c -0.786 0.786 -1.989 1.016 -2.988 0.528 c -0.798 -0.39 -1.623 -0.734 -2.471 -1.027 c -1.056 -0.365 -1.745 -1.386 -1.745 -2.503 v -1.313 c 0 -0.583 -0.472 -1.055 -1.055 -1.055 h -8.815 c -0.583 0 -1.055 0.472 -1.055 1.055 v 1.313 c 0 1.117 -0.689 2.138 -1.745 2.503 c -0.849 0.293 -1.673 0.637 -2.471 1.027 c -0.999 0.488 -2.202 0.258 -2.988 -0.528 l -0.941 -0.941 c -0.412 -0.412 -1.08 -0.412 -1.492 0 L 42.405 29.9 c -0.412 0.412 -0.412 1.08 0 1.492 l 0.941 0.941 c 0.786 0.786 1.016 1.989 0.528 2.988 c -0.39 0.798 -0.734 1.623 -1.027 2.471 c -0.365 1.056 -1.386 1.745 -2.503 1.745 h -1.313 c -0.583 0 -1.055 0.472 -1.055 1.055 v 8.815 c 0 0.583 0.472 1.055 1.055 1.055 h 1.313 c 1.117 0 2.138 0.688 2.503 1.745 c 0.293 0.848 0.637 1.673 1.027 2.471 c 0.488 0.999 0.258 2.202 -0.528 2.988 l -0.941 0.941 c -0.412 0.412 -0.412 1.08 0 1.492 l 6.233 6.233 c 0.412 0.412 1.08 0.412 1.492 0 l 0.941 -0.941 c 0.786 -0.786 1.989 -1.016 2.988 -0.528 c 0.798 0.39 1.623 0.734 2.471 1.027 c 1.056 0.365 1.745 1.386 1.745 2.503 v 1.313 c 0 0.583 0.472 1.055 1.055 1.055 h 8.815 c 0.583 0 1.055 -0.472 1.055 -1.055 v -1.313 c 0 -1.117 0.689 -2.138 1.745 -2.503 c 0.848 -0.293 1.673 -0.637 2.471 -1.027 c 0.999 -0.488 2.202 -0.258 2.988 0.528 l 0.941 0.941 c 0.412 0.412 1.08 0.412 1.492 0 l 6.233 -6.233 c 0.412 -0.412 0.412 -1.08 0 -1.492 l -0.941 -0.941 c -0.786 -0.786 -1.016 -1.989 -0.528 -2.988 c 0.39 -0.798 0.734 -1.623 1.027 -2.471 c 0.365 -1.056 1.386 -1.745 2.503 -1.745 h 1.313 c 0.583 0 1.055 -0.472 1.055 -1.055 v -8.815 C 89.5 40.01 89.028 39.537 88.445 39.537 z M 71.214 45.608 c -0.287 3.635 -3.232 6.581 -6.867 6.867 c -4.621 0.364 -8.449 -3.463 -8.085 -8.085 c 0.287 -3.635 3.232 -6.581 6.867 -6.867 C 67.751 37.16 71.578 40.987 71.214 45.608 z" style="stroke: none; stroke-width: 1; stroke-dasharray: none; stroke-linecap: butt; stroke-linejoin: miter; stroke-miterlimit: 10; fill: rgb(221,218,236); fill-rule: nonzero; opacity: 1;" transform=" matrix(1 0 0 1 0 0) " stroke-linecap="round" />
	<path d="M 62.635 31.446 c -6.591 0.52 -11.931 5.859 -12.45 12.45 c -0.661 8.378 6.279 15.318 14.657 14.657 c 6.591 -0.52 11.93 -5.86 12.45 -12.45 C 77.952 37.725 71.013 30.786 62.635 31.446 z M 71.214 45.608 c -0.287 3.635 -3.232 6.581 -6.867 6.867 c -4.621 0.364 -8.449 -3.463 -8.085 -8.085 c 0.287 -3.635 3.232 -6.581 6.867 -6.867 C 67.751 37.16 71.578 40.987 71.214 45.608 z" style="stroke: none; stroke-width: 1; stroke-dasharray: none; stroke-linecap: butt; stroke-linejoin: miter; stroke-miterlimit: 10; fill: rgb(255,209,92); fill-rule: nonzero; opacity: 1;" transform=" matrix(1 0 0 1 0 0) " stroke-linecap="round" />
	<path d="M 68.146 71.262 H 59.33 c -0.857 0 -1.555 -0.697 -1.555 -1.555 v -1.313 c 0 -0.924 -0.565 -1.74 -1.408 -2.03 c -0.867 -0.301 -1.717 -0.654 -2.527 -1.051 c -0.797 -0.391 -1.769 -0.216 -2.415 0.433 l -0.94 0.94 c -0.607 0.605 -1.593 0.607 -2.2 0 l -6.233 -6.233 c -0.606 -0.606 -0.606 -1.593 0 -2.199 l 0.941 -0.94 c 0.648 -0.647 0.821 -1.618 0.432 -2.415 c -0.399 -0.816 -0.752 -1.667 -1.05 -2.528 c -0.291 -0.842 -1.107 -1.407 -2.03 -1.407 h -1.313 c -0.857 0 -1.555 -0.698 -1.555 -1.556 v -8.815 c 0 -0.857 0.698 -1.555 1.555 -1.555 h 1.313 c 0.923 0 1.739 -0.566 2.03 -1.408 c 0.298 -0.862 0.651 -1.712 1.05 -2.528 c 0.389 -0.796 0.216 -1.767 -0.432 -2.415 l -0.941 -0.941 c -0.606 -0.606 -0.606 -1.593 0 -2.2 l 6.233 -6.233 c 0.608 -0.607 1.593 -0.605 2.2 0 l 0.94 0.941 c 0.646 0.647 1.619 0.823 2.415 0.432 c 0.818 -0.4 1.669 -0.753 2.527 -1.05 c 0.842 -0.291 1.408 -1.106 1.408 -2.03 v -1.313 c 0 -0.858 0.698 -1.556 1.556 -1.556 h 8.814 c 0.857 0 1.556 0.698 1.556 1.556 v 1.313 c 0 0.923 0.565 1.739 1.407 2.03 c 0.858 0.296 1.709 0.65 2.528 1.05 c 0.796 0.389 1.767 0.215 2.414 -0.432 l 0.941 -0.941 c 0.605 -0.606 1.594 -0.606 2.199 0 l 6.233 6.233 c 0.606 0.606 0.606 1.593 0 2.2 l -0.941 0.941 c -0.647 0.647 -0.821 1.618 -0.432 2.415 c 0.4 0.82 0.754 1.671 1.05 2.528 c 0.291 0.842 1.107 1.408 2.03 1.408 h 1.313 c 0.857 0 1.556 0.698 1.556 1.555 v 8.815 c 0 0.857 -0.698 1.556 -1.556 1.556 h -1.313 c -0.923 0 -1.739 0.565 -2.03 1.407 c -0.296 0.857 -0.649 1.707 -1.05 2.528 c -0.39 0.796 -0.216 1.767 0.432 2.415 l 0.941 0.94 c 0.606 0.606 0.606 1.593 0 2.199 l -6.233 6.233 c -0.605 0.605 -1.594 0.605 -2.199 0 l -0.941 -0.941 c -0.646 -0.647 -1.617 -0.821 -2.414 -0.432 c -0.812 0.397 -1.662 0.751 -2.527 1.051 c -0.843 0.29 -1.408 1.106 -1.408 2.03 v 1.313 C 69.701 70.564 69.003 71.262 68.146 71.262 z M 52.946 64.107 c 0.454 0 0.909 0.101 1.333 0.308 c 0.774 0.379 1.587 0.717 2.415 1.004 c 1.244 0.43 2.081 1.625 2.081 2.976 v 1.313 c 0 0.306 0.249 0.555 0.555 0.555 h 8.815 c 0.307 0 0.556 -0.249 0.556 -0.555 v -1.313 c 0 -1.351 0.836 -2.546 2.081 -2.976 c 0.827 -0.286 1.64 -0.624 2.415 -1.004 c 1.179 -0.576 2.61 -0.327 3.561 0.623 l 0.941 0.941 c 0.217 0.217 0.568 0.217 0.785 0 l 6.233 -6.233 c 0.217 -0.217 0.217 -0.568 0 -0.785 l -0.941 -0.94 c -0.949 -0.95 -1.199 -2.382 -0.623 -3.562 c 0.383 -0.784 0.721 -1.597 1.003 -2.415 c 0.431 -1.245 1.626 -2.081 2.976 -2.081 h 1.313 c 0.307 0 0.556 -0.249 0.556 -0.556 v -8.815 c 0 -0.306 -0.249 -0.555 -0.556 -0.555 h -1.313 c -1.35 0 -2.545 -0.836 -2.976 -2.081 c -0.283 -0.819 -0.62 -1.631 -1.003 -2.416 c -0.577 -1.18 -0.326 -2.611 0.623 -3.561 l 0.941 -0.941 c 0.217 -0.217 0.217 -0.569 0 -0.786 l -6.233 -6.233 c -0.217 -0.217 -0.568 -0.217 -0.785 0 l -0.941 0.941 c -0.948 0.95 -2.379 1.203 -3.561 0.624 c -0.783 -0.383 -1.596 -0.721 -2.415 -1.003 c -1.245 -0.43 -2.081 -1.626 -2.081 -2.976 v -1.313 c 0 -0.307 -0.249 -0.556 -0.556 -0.556 h -8.814 c -0.307 0 -0.556 0.249 -0.556 0.556 v 1.313 c 0 1.35 -0.837 2.546 -2.082 2.976 c -0.819 0.283 -1.632 0.621 -2.414 1.003 c -1.179 0.578 -2.611 0.327 -3.562 -0.624 l -0.94 -0.941 c -0.217 -0.218 -0.57 -0.217 -0.786 0 l -6.233 6.233 c -0.216 0.217 -0.216 0.569 0 0.786 l 0.941 0.941 c 0.95 0.95 1.2 2.381 0.624 3.561 c -0.381 0.779 -0.719 1.592 -1.003 2.415 c -0.43 1.245 -1.626 2.081 -2.976 2.081 h -1.313 c -0.306 0 -0.555 0.249 -0.555 0.555 v 8.815 c 0 0.307 0.249 0.556 0.555 0.556 h 1.313 c 1.35 0 2.545 0.836 2.976 2.081 c 0.285 0.823 0.622 1.636 1.003 2.415 c 0.577 1.181 0.326 2.611 -0.624 3.562 l -0.941 0.94 c -0.216 0.217 -0.216 0.568 0 0.785 l 6.233 6.233 c 0.217 0.218 0.569 0.216 0.786 0 l 0.94 -0.94 C 51.326 64.43 52.134 64.107 52.946 64.107 z" style="stroke: none; stroke-width: 1; stroke-dasharray: none; stroke-linecap: butt; stroke-linejoin: miter; stroke-miterlimit: 10; fill: rgb(18,34,46); fill-rule: nonzero; opacity: 1;" transform=" matrix(1 0 0 1 0 0) " stroke-linecap="round" />
	<path d="M 63.757 59.097 c -3.741 0 -7.331 -1.473 -9.988 -4.129 c -2.921 -2.922 -4.409 -6.972 -4.082 -11.111 c 0.537 -6.821 6.087 -12.371 12.909 -12.909 c 4.136 -0.324 8.189 1.163 11.11 4.083 c 2.922 2.922 4.41 6.972 4.084 11.111 c -0.537 6.822 -6.087 12.372 -12.909 12.909 l 0 0 C 64.506 59.082 64.131 59.097 63.757 59.097 z M 63.72 31.903 c -0.348 0 -0.696 0.014 -1.046 0.042 c -6.336 0.5 -11.491 5.655 -11.991 11.991 c -0.303 3.847 1.079 7.61 3.794 10.324 c 2.714 2.715 6.468 4.094 10.326 3.796 l 0 0 c 6.336 -0.5 11.491 -5.655 11.991 -11.991 c 0.303 -3.848 -1.08 -7.611 -3.795 -10.326 C 70.531 33.271 67.195 31.903 63.72 31.903 z" style="stroke: none; stroke-width: 1; stroke-dasharray: none; stroke-linecap: butt; stroke-linejoin: miter; stroke-miterlimit: 10; fill: rgb(18,34,46); fill-rule: nonzero; opacity: 1;" transform=" matrix(1 0 0 1 0 0) " stroke-linecap="round" />
	<path d="M 30.54 29.284 H 0.5 c -0.276 0 -0.5 -0.224 -0.5 -0.5 s 0.224 -0.5 0.5 -0.5 h 30.04 c 0.276 0 0.5 0.224 0.5 0.5 S 30.816 29.284 30.54 29.284 z" style="stroke: none; stroke-width: 1; stroke-dasharray: none; stroke-linecap: butt; stroke-linejoin: miter; stroke-miterlimit: 10; fill: rgb(18,34,46); fill-rule: nonzero; opacity: 1;" transform=" matrix(1 0 0 1 0 0) " stroke-linecap="round" />
	<path d="M 30.54 61.717 H 13.906 c -0.276 0 -0.5 -0.224 -0.5 -0.5 s 0.224 -0.5 0.5 -0.5 H 30.54 c 0.276 0 0.5 0.224 0.5 0.5 S 30.816 61.717 30.54 61.717 z" style="stroke: none; stroke-width: 1; stroke-dasharray: none; stroke-linecap: butt; stroke-linejoin: miter; stroke-miterlimit: 10; fill: rgb(18,34,46); fill-rule: nonzero; opacity: 1;" transform=" matrix(1 0 0 1 0 0) " stroke-linecap="round" />
	<path d="M 30.54 45.5 H 7.203 c -0.276 0 -0.5 -0.224 -0.5 -0.5 s 0.224 -0.5 0.5 -0.5 H 30.54 c 0.276 0 0.5 0.224 0.5 0.5 S 30.816 45.5 30.54 45.5 z" style="stroke: none; stroke-width: 1; stroke-dasharray: none; stroke-linecap: butt; stroke-linejoin: miter; stroke-miterlimit: 10; fill: rgb(18,34,46); fill-rule: nonzero; opacity: 1;" transform=" matrix(1 0 0 1 0 0) " stroke-linecap="round" />
	<path d="M 63.747 52.999 c -2.122 0 -4.158 -0.835 -5.666 -2.342 c -1.658 -1.658 -2.503 -3.956 -2.317 -6.305 c 0.306 -3.872 3.455 -7.022 7.326 -7.327 c 2.344 -0.182 4.647 0.659 6.305 2.318 c 1.658 1.658 2.503 3.956 2.317 6.304 c -0.305 3.872 -3.454 7.021 -7.326 7.326 l 0 0 C 64.173 52.991 63.959 52.999 63.747 52.999 z M 63.727 38 c -0.186 0 -0.371 0.007 -0.559 0.022 c -3.386 0.267 -6.141 3.022 -6.408 6.409 c -0.162 2.056 0.577 4.068 2.028 5.519 c 1.452 1.45 3.465 2.185 5.52 2.027 l 0 0 c 3.387 -0.267 6.142 -3.021 6.408 -6.408 c 0.162 -2.057 -0.577 -4.068 -2.028 -5.519 C 67.369 38.731 65.586 38 63.727 38 z" style="stroke: none; stroke-width: 1; stroke-dasharray: none; stroke-linecap: butt; stroke-linejoin: miter; stroke-miterlimit: 10; fill: rgb(18,34,46); fill-rule: nonzero; opacity: 1;" transform=" matrix(1 0 0 1 0 0) " stroke-linecap="round" />
	<path d="M 46.295 44.08 c -0.014 0 -0.027 0 -0.04 -0.001 c -0.275 -0.022 -0.481 -0.263 -0.459 -0.538 c 0.687 -8.71 7.773 -15.796 16.484 -16.483 c 0.255 -0.021 0.516 0.183 0.537 0.459 c 0.022 0.275 -0.184 0.516 -0.459 0.538 c -8.225 0.648 -14.916 7.34 -15.565 15.565 C 46.771 43.881 46.553 44.08 46.295 44.08 z" style="stroke: none; stroke-width: 1; stroke-dasharray: none; stroke-linecap: butt; stroke-linejoin: miter; stroke-miterlimit: 10; fill: rgb(18,34,46); fill-rule: nonzero; opacity: 1;" transform=" matrix(1 0 0 1 0 0) " stroke-linecap="round" />
	<path d="M 65.157 62.944 c -0.258 0 -0.477 -0.198 -0.497 -0.461 c -0.022 -0.274 0.184 -0.516 0.459 -0.537 c 2.054 -0.163 4.04 -0.698 5.903 -1.591 c 0.247 -0.119 0.548 -0.015 0.667 0.235 c 0.119 0.249 0.014 0.548 -0.235 0.667 c -1.975 0.945 -4.08 1.513 -6.257 1.685 C 65.185 62.943 65.171 62.944 65.157 62.944 z" style="stroke: none; stroke-width: 1; stroke-dasharray: none; stroke-linecap: butt; stroke-linejoin: miter; stroke-miterlimit: 10; fill: rgb(18,34,46); fill-rule: nonzero; opacity: 1;" transform=" matrix(1 0 0 1 0 0) " stroke-linecap="round" />
	<path d="M 75.568 58.372 c -0.135 0 -0.27 -0.055 -0.368 -0.161 c -0.187 -0.203 -0.174 -0.52 0.029 -0.707 c 3.183 -2.929 5.119 -6.88 5.454 -11.123 c 0.021 -0.275 0.291 -0.477 0.537 -0.459 c 0.275 0.022 0.481 0.262 0.459 0.538 c -0.354 4.496 -2.404 8.68 -5.772 11.781 C 75.811 58.328 75.689 58.372 75.568 58.372 z" style="stroke: none; stroke-width: 1; stroke-dasharray: none; stroke-linecap: butt; stroke-linejoin: miter; stroke-miterlimit: 10; fill: rgb(18,34,46); fill-rule: nonzero; opacity: 1;" transform=" matrix(1 0 0 1 0 0) " stroke-linecap="round" />
</g>
</svg>