<?xml version="1.0" encoding="UTF-8" standalone="no" ?>
<!DOCTYPE svg PUBLIC "-//W3C//DTD SVG 1.1//EN" "http://www.w3.org/Graphics/SVG/1.1/DTD/svg11.dtd">
<svg xmlns="http://www.w3.org/2000/svg" xmlns:xlink="http://www.w3.org/1999/xlink" version="1.1" width="64px" height="64px" viewBox="0 0 349.99 349.99" xml:space="preserve">
<desc>Created with Fabric.js 1.7.22</desc>
<defs>
</defs>
<g id="icon" style="stroke: none; stroke-width: 1; stroke-dasharray: none; stroke-linecap: butt; stroke-linejoin: miter; stroke-miterlimit: 10; fill: none; fill-rule: nonzero; opacity: 1;" transform="translate(-1.9443888888888807 -1.9443888888888807) scale(3.89 3.89)" >
	<path d="M 33.717 8.769 V 0.816 c 0 -0.722 -0.87 -1.087 -1.385 -0.581 l -5.322 4.319 c -0.182 0.148 -0.443 0.148 -0.625 0 l -5.322 -4.319 c -0.515 -0.506 -1.385 -0.142 -1.385 0.581 v 7.953 C 24.452 10.589 29.113 10.232 33.717 8.769 z" style="stroke: none; stroke-width: 1; stroke-dasharray: none; stroke-linecap: butt; stroke-linejoin: miter; stroke-miterlimit: 10; fill: rgb(254,80,95); fill-rule: nonzero; opacity: 1;" transform=" matrix(1 0 0 1 0 0) " stroke-linecap="round" />
	<path d="M 15.346 8.769 c -1.832 0 -3.317 1.485 -3.317 3.317 v 74.596 c 0 1.832 1.485 3.317 3.317 3.317 h 49.986 c 3.696 -25.991 3.42 -53.149 0 -81.231 H 15.346 z" style="stroke: none; stroke-width: 1; stroke-dasharray: none; stroke-linecap: butt; stroke-linejoin: miter; stroke-miterlimit: 10; fill: rgb(194,31,52); fill-rule: nonzero; opacity: 1;" transform=" matrix(1 0 0 1 0 0) " stroke-linecap="round" />
	<path d="M 71.687 89.739 c 0.794 -0.336 1.43 -0.972 1.765 -1.765 C 73.117 88.768 72.481 89.404 71.687 89.739 z" style="stroke: none; stroke-width: 1; stroke-dasharray: none; stroke-linecap: butt; stroke-linejoin: miter; stroke-miterlimit: 10; fill: rgb(194,31,52); fill-rule: nonzero; opacity: 1;" transform=" matrix(1 0 0 1 0 0) " stroke-linecap="round" />
	<path d="M 70.396 8.769 h -5.064 V 90 h 5.064 c 1.832 0 3.317 -1.485 3.317 -3.317 V 57.396 v -16.61 V 12.087 C 73.714 10.255 72.228 8.769 70.396 8.769 z" style="stroke: none; stroke-width: 1; stroke-dasharray: none; stroke-linecap: butt; stroke-linejoin: miter; stroke-miterlimit: 10; fill: rgb(222,54,72); fill-rule: nonzero; opacity: 1;" transform=" matrix(1 0 0 1 0 0) " stroke-linecap="round" />
	<path d="M 76.316 40.786 H 61.927 c -4.587 0 -8.305 3.718 -8.305 8.305 c 0 4.587 3.718 8.305 8.305 8.305 h 14.388 c 0.915 0 1.656 -0.741 1.656 -1.656 V 42.442 C 77.971 41.527 77.23 40.786 76.316 40.786 z M 59.499 51.743 c -1.465 0 -2.652 -1.187 -2.652 -2.652 c 0 -1.465 1.187 -2.652 2.652 -2.652 c 1.465 0 2.652 1.187 2.652 2.652 C 62.15 50.555 60.963 51.743 59.499 51.743 z" style="stroke: none; stroke-width: 1; stroke-dasharray: none; stroke-linecap: butt; stroke-linejoin: miter; stroke-miterlimit: 10; fill: rgb(194,218,225); fill-rule: nonzero; opacity: 1;" transform=" matrix(1 0 0 1 0 0) " stroke-linecap="round" />
	<path d="M 30.899 60.094 c -0.404 0 -0.793 -0.163 -1.077 -0.456 L 19.431 48.919 c -0.577 -0.595 -0.562 -1.544 0.033 -2.121 c 0.594 -0.577 1.543 -0.563 2.121 0.033 l 9.157 9.446 l 16.375 -22.229 c 0.492 -0.668 1.433 -0.809 2.098 -0.318 c 0.667 0.491 0.81 1.43 0.318 2.097 L 32.107 59.483 c -0.261 0.355 -0.666 0.577 -1.106 0.607 C 30.967 60.093 30.933 60.094 30.899 60.094 z" style="stroke: none; stroke-width: 1; stroke-dasharray: none; stroke-linecap: butt; stroke-linejoin: miter; stroke-miterlimit: 10; fill: rgb(255,205,56); fill-rule: nonzero; opacity: 1;" transform=" matrix(1 0 0 1 0 0) " stroke-linecap="round" />
</g>
</svg>