<?xml version="1.0" encoding="UTF-8" standalone="no" ?>
<!DOCTYPE svg PUBLIC "-//W3C//DTD SVG 1.1//EN" "http://www.w3.org/Graphics/SVG/1.1/DTD/svg11.dtd">
<svg xmlns="http://www.w3.org/2000/svg" xmlns:xlink="http://www.w3.org/1999/xlink" version="1.1" width="64px" height="64px" viewBox="0 0 349.99 349.99" xml:space="preserve">
<desc>Created with Fabric.js 1.7.22</desc>
<defs>
</defs>
<g id="icon" style="stroke: none; stroke-width: 1; stroke-dasharray: none; stroke-linecap: butt; stroke-linejoin: miter; stroke-miterlimit: 10; fill: none; fill-rule: nonzero; opacity: 1;" transform="translate(-1.9443888888888807 -1.9443888888888807) scale(3.89 3.89)" >
	<path d="M 20.795 10.019 L 20.795 10.019 c -0.514 -0.213 -0.553 -0.687 -0.553 -0.828 c 0 -0.141 0.04 -0.615 0.553 -0.828 c 0.259 -0.107 0.46 -0.308 0.567 -0.567 c 0.107 -0.258 0.107 -0.543 0 -0.802 l -0.682 -1.647 c -0.221 -0.533 -0.834 -0.788 -1.369 -0.567 c -0.513 0.213 -0.877 -0.095 -0.976 -0.194 c -0.099 -0.099 -0.407 -0.463 -0.194 -0.977 c 0.107 -0.258 0.107 -0.543 0 -0.802 c -0.107 -0.259 -0.308 -0.46 -0.567 -0.567 L 15.926 1.56 c -0.533 -0.221 -1.147 0.034 -1.369 0.567 C 14.345 2.64 13.87 2.68 13.729 2.68 s -0.615 -0.04 -0.828 -0.553 c -0.107 -0.259 -0.308 -0.46 -0.567 -0.567 c -0.258 -0.107 -0.543 -0.107 -0.802 0 L 9.886 2.242 C 9.627 2.349 9.426 2.55 9.319 2.809 s -0.107 0.543 0 0.802 c 0.213 0.513 -0.095 0.877 -0.194 0.976 C 9.026 4.686 8.662 4.994 8.149 4.781 c -0.258 -0.107 -0.543 -0.107 -0.802 0 C 7.088 4.888 6.887 5.09 6.78 5.348 L 6.098 6.995 c -0.107 0.259 -0.107 0.543 0 0.802 c 0.107 0.259 0.308 0.46 0.567 0.567 c 0.513 0.213 0.553 0.687 0.553 0.828 s -0.04 0.615 -0.553 0.828 c -0.534 0.221 -0.788 0.835 -0.567 1.369 l 0.682 1.647 c 0.107 0.259 0.308 0.46 0.567 0.567 c 0.258 0.107 0.543 0.107 0.802 0 c 0.513 -0.212 0.877 0.095 0.976 0.194 c 0.099 0.099 0.407 0.463 0.194 0.976 c -0.221 0.533 0.033 1.147 0.567 1.369 l 1.647 0.682 c 0.129 0.053 0.265 0.08 0.401 0.08 s 0.272 -0.027 0.401 -0.08 c 0.259 -0.107 0.46 -0.308 0.567 -0.567 c 0.213 -0.513 0.687 -0.553 0.828 -0.553 l 0 0 c 0.14 0 0.615 0.04 0.828 0.553 c 0.221 0.533 0.835 0.787 1.369 0.566 l 1.648 -0.682 c 0.533 -0.221 0.787 -0.835 0.566 -1.369 c -0.213 -0.513 0.095 -0.877 0.194 -0.976 c 0.099 -0.099 0.463 -0.407 0.977 -0.194 c 0.534 0.22 1.147 -0.034 1.369 -0.567 l 0.682 -1.647 C 21.582 10.854 21.328 10.241 20.795 10.019 z M 13.729 12.084 c -1.595 0 -2.892 -1.297 -2.892 -2.892 s 1.297 -2.892 2.892 -2.892 s 2.892 1.297 2.892 2.892 S 15.324 12.084 13.729 12.084 z" style="stroke: none; stroke-width: 1; stroke-dasharray: none; stroke-linecap: butt; stroke-linejoin: miter; stroke-miterlimit: 10; fill: rgb(255,226,122); fill-rule: nonzero; opacity: 1;" transform=" matrix(3.89 0 0 3.89 -1.9444444444444287 -1.9444444444444287) " stroke-linecap="round" />
	<path d="M 57.574 59.068 c -1.642 -2.862 -4.127 -5.843 -8.898 -5.024 l -14.163 2.565 c -4.919 0.402 -8.363 -3.877 -13.148 -3.452 l -3.312 0.294 v 28.335 l 6.703 -0.595 c 6.712 -0.596 12.971 4.707 19.198 4.154 c 6.804 -0.594 24.933 -12.388 43.76 -24.134 c 1.222 -0.762 1.669 -2.371 0.926 -3.605 c -3.835 -6.365 -9.894 -8.303 -14.856 -6.074 L 57.574 59.068 z" style="stroke: none; stroke-width: 1; stroke-dasharray: none; stroke-linecap: butt; stroke-linejoin: miter; stroke-miterlimit: 10; fill: rgb(255,200,159); fill-rule: nonzero; opacity: 1;" transform=" matrix(1 0 0 1 0 0) " stroke-linecap="round" />
	<path d="M 15.533 85.385 H 3.519 c -1.392 0 -2.52 -1.128 -2.52 -2.52 V 50.57 c 0 -1.392 1.128 -2.52 2.52 -2.52 h 12.014 c 1.392 0 2.52 1.128 2.52 2.52 v 32.296 C 18.053 84.257 16.925 85.385 15.533 85.385 z" style="stroke: none; stroke-width: 1; stroke-dasharray: none; stroke-linecap: butt; stroke-linejoin: miter; stroke-miterlimit: 10; fill: rgb(74,128,170); fill-rule: nonzero; opacity: 1;" transform=" matrix(1 0 0 1 0 0) " stroke-linecap="round" />
	<path d="M 6.966 13.189 c -0.101 0 -0.197 -0.06 -0.238 -0.159 l -0.664 -1.603 c -0.269 -0.65 0.04 -1.398 0.69 -1.668 c 0.343 -0.142 0.38 -0.444 0.38 -0.568 S 7.098 8.765 6.756 8.623 c -0.315 -0.13 -0.56 -0.376 -0.691 -0.691 c -0.13 -0.315 -0.13 -0.662 0 -0.977 l 0.664 -1.603 c 0.13 -0.315 0.376 -0.56 0.691 -0.691 c 0.315 -0.13 0.662 -0.13 0.977 0 c 0.343 0.142 0.583 -0.046 0.67 -0.133 C 9.154 4.441 9.342 4.201 9.2 3.859 c -0.13 -0.315 -0.13 -0.662 0 -0.977 c 0.131 -0.315 0.376 -0.56 0.691 -0.691 l 1.602 -0.664 c 0.315 -0.131 0.662 -0.131 0.977 0 c 0.315 0.131 0.561 0.376 0.691 0.691 c 0.142 0.342 0.445 0.379 0.568 0.379 s 0.426 -0.037 0.568 -0.379 c 0.27 -0.65 1.018 -0.96 1.668 -0.691 l 1.603 0.664 c 0.315 0.131 0.56 0.376 0.691 0.691 c 0.13 0.315 0.131 0.662 0 0.976 c -0.142 0.343 0.046 0.583 0.133 0.67 c 0.088 0.088 0.328 0.276 0.67 0.133 c 0.65 -0.27 1.398 0.04 1.668 0.69 l 0.664 1.603 c 0.131 0.315 0.131 0.662 0 0.977 c -0.131 0.315 -0.376 0.56 -0.691 0.691 c -0.343 0.142 -0.379 0.444 -0.379 0.568 c 0 0.124 0.037 0.427 0.379 0.568 c 0.65 0.27 0.96 1.018 0.691 1.668 l -0.383 0.924 c -0.054 0.131 -0.206 0.193 -0.336 0.139 c -0.131 -0.054 -0.193 -0.205 -0.139 -0.336 l 0.383 -0.924 c 0.161 -0.388 -0.024 -0.835 -0.412 -0.996 c -0.514 -0.213 -0.697 -0.678 -0.697 -1.043 c -0.001 -0.364 0.182 -0.83 0.697 -1.043 c 0.188 -0.078 0.335 -0.224 0.413 -0.413 c 0.078 -0.188 0.078 -0.395 0 -0.584 L 20.255 5.55 c -0.161 -0.388 -0.608 -0.573 -0.996 -0.412 c -0.647 0.268 -1.105 -0.12 -1.23 -0.245 c -0.258 -0.258 -0.458 -0.716 -0.245 -1.23 c 0.078 -0.188 0.078 -0.395 0 -0.583 c -0.078 -0.188 -0.224 -0.335 -0.412 -0.413 l -1.603 -0.664 c -0.388 -0.161 -0.835 0.025 -0.996 0.413 c -0.213 0.513 -0.678 0.696 -1.043 0.696 c -0.177 0 -0.775 -0.05 -1.043 -0.697 c -0.078 -0.188 -0.224 -0.335 -0.412 -0.413 c -0.188 -0.078 -0.395 -0.078 -0.584 0 l -1.602 0.664 C 9.899 2.744 9.753 2.89 9.675 3.078 c -0.078 0.188 -0.078 0.395 0 0.583 c 0.213 0.514 0.013 0.973 -0.245 1.23 C 9.305 5.017 8.847 5.405 8.2 5.137 c -0.188 -0.078 -0.395 -0.078 -0.584 0 C 7.428 5.215 7.282 5.361 7.204 5.549 L 6.54 7.152 c -0.078 0.188 -0.078 0.395 0 0.584 c 0.078 0.188 0.225 0.335 0.413 0.412 c 0.514 0.213 0.697 0.678 0.697 1.043 s -0.183 0.83 -0.697 1.043 c -0.388 0.161 -0.573 0.608 -0.412 0.996 l 0.664 1.603 c 0.054 0.131 -0.008 0.282 -0.139 0.336 C 7.032 13.182 6.999 13.189 6.966 13.189 z M 13.729 12.263 c -1.694 0 -3.071 -1.378 -3.071 -3.071 c 0 -1.694 1.378 -3.072 3.071 -3.072 s 3.072 1.378 3.072 3.072 C 16.801 10.885 15.423 12.263 13.729 12.263 z M 13.729 6.634 c -1.41 0 -2.557 1.147 -2.557 2.557 s 1.147 2.557 2.557 2.557 s 2.557 -1.147 2.557 -2.557 S 15.14 6.634 13.729 6.634 z" style="stroke: none; stroke-width: 1; stroke-dasharray: none; stroke-linecap: butt; stroke-linejoin: miter; stroke-miterlimit: 10; fill: rgb(0,0,0); fill-rule: nonzero; opacity: 1;" transform=" matrix(3.89 0 0 3.89 -1.9444444444444287 -1.9444444444444287) " stroke-linecap="round" />
	<path d="M 43.034 86.385 c -2.937 0 -5.845 -1.081 -8.667 -2.13 c -3.111 -1.156 -6.328 -2.35 -9.523 -2.068 l -6.702 0.595 c -0.279 0.028 -0.557 -0.068 -0.764 -0.259 c -0.207 -0.189 -0.325 -0.457 -0.325 -0.737 V 53.45 c 0 -0.518 0.396 -0.95 0.912 -0.996 l 3.312 -0.294 c 2.652 -0.238 4.868 0.798 7.012 1.797 c 2.025 0.943 3.938 1.844 6.143 1.654 l 14.066 -2.553 c 5.034 -0.856 7.795 2.065 9.471 4.723 l 15.394 -7.156 c 5.766 -2.588 12.244 0.01 16.134 6.464 c 1.011 1.679 0.449 3.907 -1.253 4.97 c -1.996 1.245 -3.985 2.491 -5.953 3.725 C 65.159 76.518 50.363 85.788 44.041 86.341 C 43.706 86.371 43.37 86.385 43.034 86.385 z M 25.83 80.143 c 3.215 0 6.269 1.135 9.234 2.237 c 3.07 1.141 5.968 2.222 8.802 1.968 c 5.843 -0.511 21.153 -10.104 37.362 -20.26 c 1.97 -1.233 3.959 -2.481 5.957 -3.727 c 0.78 -0.487 1.049 -1.492 0.599 -2.24 c -3.343 -5.546 -8.807 -7.823 -13.589 -5.677 l -16.199 7.53 c -0.476 0.217 -1.031 0.039 -1.289 -0.409 c -1.521 -2.649 -3.636 -5.259 -7.862 -4.537 l -14.154 2.565 c -2.826 0.229 -5.075 -0.812 -7.248 -1.823 c -1.992 -0.928 -3.873 -1.808 -5.99 -1.617 l -2.4 0.213 v 26.327 l 5.614 -0.498 C 25.057 80.16 25.444 80.143 25.83 80.143 z" style="stroke: none; stroke-width: 1; stroke-dasharray: none; stroke-linecap: butt; stroke-linejoin: miter; stroke-miterlimit: 10; fill: rgb(0,0,0); fill-rule: nonzero; opacity: 1;" transform=" matrix(1 0 0 1 0 0) " stroke-linecap="round" />
	<path d="M 39.09 71.62 c -0.467 0 -0.885 -0.328 -0.98 -0.804 c -0.108 -0.542 0.243 -1.068 0.784 -1.177 c 5.569 -1.113 11.835 -3.662 19.127 -7.781 l -1.315 -2.292 c -0.275 -0.48 -0.109 -1.091 0.369 -1.365 c 0.48 -0.273 1.091 -0.11 1.365 0.369 l 1.814 3.162 c 0.274 0.479 0.109 1.09 -0.368 1.365 c -7.857 4.521 -14.595 7.302 -20.6 8.503 C 39.221 71.614 39.155 71.62 39.09 71.62 z" style="stroke: none; stroke-width: 1; stroke-dasharray: none; stroke-linecap: butt; stroke-linejoin: miter; stroke-miterlimit: 10; fill: rgb(0,0,0); fill-rule: nonzero; opacity: 1;" transform=" matrix(1 0 0 1 0 0) " stroke-linecap="round" />
	<path d="M 15.533 86.385 H 3.519 c -1.941 0 -3.52 -1.579 -3.52 -3.52 V 50.569 c 0 -1.94 1.579 -3.52 3.52 -3.52 h 12.014 c 1.941 0 3.52 1.579 3.52 3.52 v 32.296 C 19.053 84.806 17.474 86.385 15.533 86.385 z M 3.519 49.05 c -0.838 0 -1.52 0.682 -1.52 1.52 v 32.296 c 0 0.838 0.682 1.52 1.52 1.52 h 12.014 c 0.838 0 1.52 -0.682 1.52 -1.52 V 50.569 c 0 -0.838 -0.682 -1.52 -1.52 -1.52 H 3.519 z" style="stroke: none; stroke-width: 1; stroke-dasharray: none; stroke-linecap: butt; stroke-linejoin: miter; stroke-miterlimit: 10; fill: rgb(0,0,0); fill-rule: nonzero; opacity: 1;" transform=" matrix(1 0 0 1 0 0) " stroke-linecap="round" />
</g>
</svg>