<?xml version="1.0" encoding="UTF-8" standalone="no" ?>
<!DOCTYPE svg PUBLIC "-//W3C//DTD SVG 1.1//EN" "http://www.w3.org/Graphics/SVG/1.1/DTD/svg11.dtd">
<svg xmlns="http://www.w3.org/2000/svg" xmlns:xlink="http://www.w3.org/1999/xlink" version="1.1" width="48px" height="48px" viewBox="0 0 349.99 349.99" xml:space="preserve">
<desc>Created with Fabric.js 1.7.22</desc>
<defs>
</defs>
<g id="icon" style="stroke: none; stroke-width: 1; stroke-dasharray: none; stroke-linecap: butt; stroke-linejoin: miter; stroke-miterlimit: 10; fill: none; fill-rule: nonzero; opacity: 1;" transform="translate(-1.9443888888888807 -1.9443888888888807) scale(3.89 3.89)" >
	<path d="M 86.181 3.998 H 6 L 3.542 59.62 c 0 2.109 2.887 4.903 4.997 4.903 l 9.334 0.283 l 2.076 15.308 L 33.21 67.098 h 52.97 c 2.109 0 3.819 -1.71 3.819 -3.819 V 7.817 C 90 5.708 88.29 3.998 86.181 3.998 z" style="stroke: none; stroke-width: 1; stroke-dasharray: none; stroke-linecap: butt; stroke-linejoin: miter; stroke-miterlimit: 10; fill: rgb(105,188,69); fill-rule: nonzero; opacity: 1;" transform=" matrix(1 0 0 1 0 0) " stroke-linecap="round" />
	<path d="M 19.948 80.113 V 63.098 H 9.819 C 7.71 63.098 6 61.388 6 59.279 V 3.998 H 3.819 C 1.71 3.998 0 5.708 0 7.817 v 55.461 c 0 2.109 1.71 3.819 3.819 3.819 h 10.129 v 18.904 L 19.948 80.113 z" style="stroke: none; stroke-width: 1; stroke-dasharray: none; stroke-linecap: butt; stroke-linejoin: miter; stroke-miterlimit: 10; fill: rgb(85,159,52); fill-rule: nonzero; opacity: 1;" transform=" matrix(1 0 0 1 0 0) " stroke-linecap="round" />
	<path d="M 75.947 48.616 H 14.442 c -0.82 0 -1.484 -0.664 -1.484 -1.484 s 0.664 -1.484 1.484 -1.484 h 61.506 c 0.819 0 1.484 0.664 1.484 1.484 S 76.766 48.616 75.947 48.616 z" style="stroke: none; stroke-width: 1; stroke-dasharray: none; stroke-linecap: butt; stroke-linejoin: miter; stroke-miterlimit: 10; fill: rgb(255,255,255); fill-rule: nonzero; opacity: 1;" transform=" matrix(1 0 0 1 0 0) " stroke-linecap="round" />
	<path d="M 75.947 36.748 H 14.442 c -0.82 0 -1.484 -0.664 -1.484 -1.484 s 0.664 -1.484 1.484 -1.484 h 61.506 c 0.819 0 1.484 0.664 1.484 1.484 S 76.766 36.748 75.947 36.748 z" style="stroke: none; stroke-width: 1; stroke-dasharray: none; stroke-linecap: butt; stroke-linejoin: miter; stroke-miterlimit: 10; fill: rgb(255,255,255); fill-rule: nonzero; opacity: 1;" transform=" matrix(1 0 0 1 0 0) " stroke-linecap="round" />
	<path d="M 75.947 24.88 H 14.442 c -0.82 0 -1.484 -0.664 -1.484 -1.484 s 0.664 -1.484 1.484 -1.484 h 61.506 c 0.819 0 1.484 0.664 1.484 1.484 S 76.766 24.88 75.947 24.88 z" style="stroke: none; stroke-width: 1; stroke-dasharray: none; stroke-linecap: butt; stroke-linejoin: miter; stroke-miterlimit: 10; fill: rgb(255,255,255); fill-rule: nonzero; opacity: 1;" transform=" matrix(1 0 0 1 0 0) " stroke-linecap="round" />
</g>
</svg>